<svg width="1800.000000pt" height="700.000000pt" viewBox="0 0 1800.000000 700.000000" xmlns="http://www.w3.org/2000/svg">
  <g transform="translate(0.000000,700.000000) scale(0.100000,-0.100000)" fill="#fefefe" stroke="none">
    <path d="M0 3500 c0 -3500 0 -3500 9000 -3500 9000 0 9000 0 9000 3500 0 3500
0 3500 -8235 3500 -4938 0 -8235 -4 -8235 -9 0 -5 -30 -49 -66 -97 -159 -214
-314 -626 -314 -836 0 -74 21 -62 148 82 60 69 158 179 217 245 59 66 150 175
202 242 101 132 113 144 113 116 0 -33 -114 -211 -361 -563 -217 -310 -295
-701 -199 -1000 76 -233 253 -468 459 -604 122 -81 516 -276 558 -276 18 0 17
11 -16 114 -80 249 -100 477 -56 641 24 89 108 255 149 294 43 42 44 36 7 -55
-87 -214 -89 -451 -5 -713 56 -175 255 -521 299 -521 8 0 23 5 33 11 14 9 34
1 106 -45 123 -77 169 -91 291 -91 112 1 164 19 276 95 37 25 67 38 85 37 53
-4 260 347 328 558 72 226 77 443 12 629 -41 118 -40 139 6 86 161 -189 190
-545 72 -886 -27 -78 -30 -114 -11 -114 33 0 481 227 583 295 385 256 549 733
393 1143 -71 187 -238 461 -347 570 -68 68 -262 395 -242 407 7 4 15 3 19 -1
4 -5 47 -62 96 -127 49 -66 96 -124 105 -130 27 -21 316 -340 380 -419 47 -60
68 -78 87 -78 24 0 25 1 18 53 -43 344 -139 602 -317 850 -72 100 -50 95 55
-13 237 -244 359 -533 439 -1042 26 -166 32 -174 79 -100 52 82 60 127 66 360
7 248 2 280 -64 430 -47 107 -50 137 -7 87 151 -182 198 -319 198 -585 1 -147
-2 -176 -26 -267 -58 -222 -219 -560 -412 -862 -36 -57 -66 -110 -66 -118 0
-50 171 60 314 202 307 306 455 686 377 968 -35 128 -16 137 48 23 187 -333
-3 -890 -431 -1264 -120 -104 -348 -227 -638 -342 -437 -174 -720 -349 -781
-484 -22 -48 53 -106 79 -61 16 30 203 163 289 208 85 43 247 101 403 145 41
11 116 32 165 46 188 52 186 54 155 -105 -50 -263 -142 -455 -295 -617 -100
-107 -216 -164 -389 -192 -90 -14 -121 -28 -178 -77 -25 -22 -61 -50 -81 -62
-35 -21 -35 -21 -42 -174 -9 -206 2 -292 101 -771 51 -247 137 -553 248 -891
76 -230 76 -230 -2 -308 -304 -308 -455 -436 -712 -607 -65 -43 -65 -43 47 71
125 127 155 163 221 264 114 176 222 451 243 620 1 6 6 -19 13 -55 9 -55 14
-65 31 -65 27 0 24 155 -5 290 -10 49 -30 142 -44 205 -14 63 -49 235 -78 383
-61 306 -70 322 -99 172 -45 -228 -131 -441 -256 -635 -71 -109 -118 -166
-273 -325 -308 -317 -401 -507 -374 -764 5 -50 8 -91 6 -91 -7 0 -134 276
-178 387 -63 157 -143 420 -210 688 -30 121 -59 231 -64 245 -5 14 -18 69 -30
123 -15 67 -26 97 -36 97 -27 0 -10 -123 51 -354 14 -54 37 -151 50 -215 134
-633 324 -1069 600 -1370 40 -44 40 -44 5 -26 -182 93 -690 475 -925 696 -38
36 -90 83 -114 105 -44 40 -44 40 2 120 100 173 159 419 187 779 34 448 41
630 24 676 -13 34 -19 102 -25 299 -14 408 -14 408 -58 426 -20 8 -49 28 -66
43 -76 70 -99 81 -221 102 -190 33 -246 57 -358 159 -95 88 -216 290 -271 455
-19 58 -65 270 -65 303 0 43 89 26 389 -74 298 -99 391 -148 558 -293 102 -88
143 -93 143 -15 0 114 -234 263 -785 499 -238 103 -312 140 -436 223 -306 205
-557 528 -639 822 -65 235 -63 394 8 544 58 122 98 142 68 34 -80 -289 50
-650 347 -964 148 -156 317 -281 317 -235 0 6 -35 67 -78 138 -162 264 -285
508 -366 727 -144 384 -105 729 107 971 47 54 55 40 18 -34 -76 -150 -85 -196
-85 -416 0 -231 16 -317 80 -424 29 -50 64 -80 64 -56 0 32 56 423 70 491 55
267 218 565 405 743 41 39 75 73 75 76 0 3 -342 5 -760 5 -760 0 -760 0 -760
-3500z m3410 2484 c498 -58 1062 -284 1367 -549 78 -68 22 -43 -87 39 -666
500 -1730 643 -2555 344 -201 -73 -595 -284 -595 -319 0 -5 -5 -9 -12 -9 -6 0
-45 -27 -86 -61 -48 -40 -73 -55 -70 -43 8 43 288 237 487 338 322 163 669
253 1081 280 91 6 337 -4 470 -20z m2087 -1358 c401 -647 511 -1511 286 -2256
-221 -733 -717 -1327 -1386 -1657 -284 -141 -656 -275 -591 -214 5 5 43 19 84
31 565 165 1098 530 1441 986 674 896 721 2218 114 3151 -29 45 -50 84 -47 88
9 9 33 -22 99 -129z m-4759 36 c-444 -723 -531 -1627 -233 -2427 294 -790 984
-1450 1772 -1695 65 -20 113 -40 113 -47 0 -18 -4 -18 -146 31 -1318 452
-2139 1807 -1905 3143 39 220 107 446 202 662 84 192 211 417 229 406 5 -3 -9
-36 -32 -73z m6583 -1244 c-51 -52 -62 -100 -221 -891 -83 -417 -160 -778
-170 -802 -64 -148 -209 -282 -362 -334 -71 -24 -123 -29 -73 -7 64 28 111
102 155 243 30 97 340 1649 340 1703 0 25 -9 62 -19 83 -19 37 -19 37 181 37
200 0 200 0 169 -32z m1508 -748 c-93 -467 -145 -746 -139 -748 7 -3 5 -13 -5
-28 -20 -30 -85 -350 -85 -416 0 -27 7 -64 14 -83 15 -35 15 -35 -181 -35
-195 0 -195 0 -164 35 51 59 56 80 227 930 165 827 182 933 154 985 -9 17 -5
19 48 25 114 13 168 26 222 53 30 15 56 27 57 27 0 0 -66 -335 -148 -745z
m2290 0 c-93 -467 -145 -746 -139 -748 7 -3 5 -13 -5 -28 -20 -30 -85 -350
-85 -416 0 -27 7 -64 14 -83 15 -35 15 -35 -181 -35 -195 0 -195 0 -164 35 51
59 56 80 227 930 165 827 182 933 154 985 -9 17 -5 19 48 25 114 13 168 26
222 53 30 15 56 27 57 27 0 0 -66 -335 -148 -745z m-849 126 c-16 -82 -30
-155 -30 -162 0 -11 48 -14 238 -17 237 -2 237 -2 -4 -5 -241 -2 -241 -2 -334
-464 -124 -620 -132 -767 -43 -776 43 -4 88 21 122 69 30 40 30 40 55 2 26
-37 26 -37 -22 -57 -76 -32 -210 -28 -284 7 -103 50 -178 166 -178 275 0 26
38 239 85 472 47 233 85 434 85 447 0 21 -4 22 -102 26 -103 3 -103 3 3 5 124
2 117 -4 126 118 4 63 2 89 -10 113 -15 31 -15 31 36 31 70 0 181 25 236 52
26 13 47 21 49 18 1 -3 -11 -73 -28 -154z m4600 0 c-16 -82 -30 -155 -30 -162
0 -11 48 -14 238 -17 237 -2 237 -2 -4 -5 -241 -2 -241 -2 -334 -464 -124
-620 -132 -767 -43 -776 43 -4 88 21 122 69 30 40 30 40 55 2 26 -37 26 -37
-22 -57 -76 -32 -210 -28 -284 7 -103 50 -178 166 -178 275 0 26 38 239 85
472 47 233 85 434 85 447 0 21 -4 22 -102 26 -103 3 -103 3 3 5 124 2 117 -4
126 118 4 63 2 89 -10 113 -15 31 -15 31 36 31 70 0 181 25 236 52 26 13 47
21 49 18 1 -3 -11 -73 -28 -154z m-6898 -205 c75 -29 159 -105 186 -168 39
-92 38 -103 -43 -503 -81 -402 -88 -473 -55 -527 20 -33 20 -33 -75 -33 -112
0 -151 13 -189 62 -35 47 -35 50 34 393 33 164 60 300 60 302 0 2 -15 4 -32 4
-33 2 -33 2 2 8 34 6 34 6 62 141 53 265 33 323 -123 340 -74 9 -74 9 21 6 69
-2 111 -9 152 -25z m4850 0 c75 -29 159 -105 186 -168 39 -92 38 -103 -43
-503 -81 -402 -88 -473 -55 -527 20 -33 20 -33 -75 -33 -112 0 -151 13 -189
62 -35 47 -35 50 34 393 33 164 60 300 60 302 0 2 -15 4 -32 4 -33 2 -33 2 2
8 34 6 34 6 62 141 53 265 33 323 -123 340 -74 9 -74 9 21 6 69 -2 111 -9 152
-25z m1387 18 c17 -6 31 -15 31 -20 0 -7 -74 -134 -85 -147 -2 -2 -20 8 -42
22 -81 53 -180 56 -251 9 -37 -25 -37 -25 -7 7 106 112 250 165 354 129z
m1745 -20 c112 -41 193 -129 217 -234 11 -51 9 -70 -44 -337 -56 -283 -56
-283 -99 -321 -39 -35 -260 -188 -264 -184 -1 1 24 135 57 297 68 339 64 307
42 313 -15 4 -14 5 2 6 19 1 24 17 49 146 48 248 31 307 -93 325 -35 5 -66 12
-70 16 -13 15 150 -7 203 -27z m1428 16 c166 -35 265 -122 304 -267 21 -80 19
-94 -57 -477 -74 -372 -79 -424 -44 -477 15 -24 15 -24 -186 -24 -201 0 -201
0 -166 39 48 53 57 85 142 511 81 402 89 485 59 573 -23 69 -62 102 -136 120
-59 14 -61 15 -23 16 22 0 70 -6 107 -14z m-7757 -17 c-3 -13 -9 -41 -13 -63
-9 -45 -14 -46 -102 -21 -30 9 -89 16 -130 17 -75 1 -75 1 -20 27 64 30 178
60 233 61 34 1 37 -1 32 -21z m2290 0 c-3 -13 -9 -41 -13 -63 -9 -45 -14 -46
-102 -21 -30 9 -89 16 -130 17 -75 1 -75 1 -20 27 64 30 178 60 233 61 34 1
37 -1 32 -21z m-4295 -34 c-34 -32 -64 -75 -98 -143 -49 -98 -49 -98 -116 -71
-68 27 -68 27 -10 90 63 68 134 118 211 149 67 28 68 27 13 -25z m4850 0 c-34
-32 -64 -75 -98 -143 -49 -98 -49 -98 -116 -71 -68 27 -68 27 -10 90 63 68
134 118 211 149 67 28 68 27 13 -25z m3174 27 c-52 -32 -114 -122 -157 -229
-19 -48 -19 -48 -104 -11 -53 23 -53 25 2 87 53 59 133 114 213 148 69 28 88
30 46 5z m-2029 -271 c-37 -186 -52 -276 -44 -280 7 -5 1 -35 -19 -91 -16 -46
-42 -149 -57 -229 -16 -80 -32 -146 -37 -148 -10 -4 -11 -129 0 -134 4 -1 15
-18 24 -35 17 -33 17 -33 -189 -33 -207 0 -207 0 -181 28 52 55 68 109 149
509 86 419 102 558 70 596 -12 16 -9 17 40 17 88 0 180 19 239 48 30 15 56 27
57 26 2 0 -22 -124 -52 -274z m3188 200 c-10 -51 -12 -75 -5 -78 6 -2 -6 -17
-26 -34 -65 -55 -202 -191 -263 -261 -41 -46 -58 -61 -54 -45 34 144 46 233
43 318 -2 95 -2 95 73 101 85 7 170 30 214 57 17 11 31 19 32 18 1 -1 -5 -35
-14 -76z m-7533 -660 c122 -267 224 -488 227 -492 2 -5 -67 -8 -155 -8 -159 0
-159 0 -327 365 -97 208 -174 365 -182 365 -7 0 -13 3 -13 6 0 15 219 259 226
251 1 -1 102 -220 224 -487z m2290 0 c122 -267 224 -488 227 -492 2 -5 -67 -8
-155 -8 -159 0 -159 0 -327 365 -97 208 -174 365 -182 365 -7 0 -13 3 -13 6 0
15 219 259 226 251 1 -1 102 -220 224 -487z m5125 70 c-78 -389 -88 -476 -60
-530 16 -30 16 -30 -180 -30 -196 0 -196 0 -166 38 45 56 55 88 100 317 23
116 46 219 51 231 23 58 319 381 327 358 2 -5 -31 -178 -72 -384z m-9070 143
c-152 -79 -265 -292 -265 -497 0 -119 36 -158 153 -166 72 -5 72 -5 -46 -24
-296 -47 -446 41 -407 238 39 198 207 348 495 442 120 40 136 42 70 7z m4850
0 c-152 -79 -265 -292 -265 -497 0 -119 36 -158 153 -166 72 -5 72 -5 -46 -24
-296 -47 -446 41 -407 238 39 198 207 348 495 442 120 40 136 42 70 7z m3147
-1 c-157 -81 -272 -293 -272 -500 0 -121 43 -164 164 -166 71 0 71 0 16 -13
-97 -23 -277 -28 -340 -9 -112 33 -160 113 -139 231 37 206 198 350 504 451
123 40 135 41 67 6z m427 -482 c-16 -75 -8 -173 16 -200 20 -22 20 -22 -98
-18 -119 3 -119 3 -153 41 -19 20 -42 37 -51 37 -9 0 6 12 32 26 56 30 163 98
220 142 49 37 48 37 34 -28z m-9693 -186 c15 -10 48 -22 73 -26 31 -5 22 -5
-30 -2 -93 6 -131 16 -182 50 -40 26 -40 26 13 59 54 33 54 33 76 -15 12 -27
35 -57 50 -66z m3403 -481 c-17 -44 -99 -463 -99 -505 0 -38 0 -38 -39 -38
-39 0 -40 1 -31 28 5 15 28 122 50 237 42 215 52 243 99 282 33 29 33 29 20
-4z m1992 -258 c-56 -285 -56 -285 -89 -285 -27 0 -32 3 -28 18 14 44 96 469
96 498 0 29 4 33 38 42 20 5 37 10 38 11 0 1 -24 -127 -55 -284z m-351 268 c1
-5 -23 -131 -52 -280 -53 -273 -53 -273 -86 -273 -27 0 -32 3 -28 18 14 44 96
469 96 498 0 26 5 34 23 37 38 7 47 7 47 0z m1810 0 c1 -5 -23 -131 -52 -280
-53 -273 -53 -273 -86 -273 -27 0 -32 3 -28 18 14 44 96 469 96 498 0 26 5 34
23 37 38 7 47 7 47 0z m-533 -115 c-21 -16 -23 -16 -35 0 -11 14 -9 19 10 33
34 26 58 -7 25 -33z m928 -30 c-24 -102 -65 -329 -65 -360 0 -45 -6 -47 -43
-12 -25 23 -28 31 -21 68 3 22 10 43 14 46 8 6 50 213 50 247 0 14 7 23 23 26
45 9 48 8 42 -15z m-3510 -108 c58 -61 42 -162 -39 -239 -40 -39 -44 -36 -19
12 28 52 25 206 -4 246 -23 30 -23 30 6 20 15 -6 41 -23 56 -39z m350 41 c8
-14 -9 -21 -35 -14 -22 6 -23 7 -4 14 26 10 32 10 39 0z m1980 0 c8 -14 -9
-21 -35 -14 -22 6 -23 7 -4 14 26 10 32 10 39 0z m-1700 -33 c19 -18 37 -45
41 -60 6 -26 4 -28 -29 -28 -32 0 -35 3 -42 38 -3 20 -13 47 -21 60 -23 35 9
29 51 -10z m1355 -18 c8 -19 6 -49 -10 -124 -11 -54 -20 -113 -20 -132 0 -34
-10 -41 -44 -28 -21 8 -20 30 9 175 14 68 24 132 21 141 -6 27 31 -1 44 -32z
m900 0 c8 -19 6 -49 -10 -124 -11 -54 -20 -113 -20 -132 0 -34 -10 -41 -44
-28 -21 8 -20 30 9 175 14 68 24 132 21 141 -6 27 31 -1 44 -32z m1015 18 c19
-18 37 -45 41 -60 6 -26 4 -28 -29 -28 -32 0 -35 3 -42 38 -3 20 -13 47 -21
60 -23 35 9 29 51 -10z m-3717 -43 c-5 -33 -13 -73 -18 -90 -5 -16 -15 -63
-22 -102 -12 -73 -12 -73 -45 -73 -31 0 -33 2 -26 28 4 15 18 85 33 157 26
128 26 130 55 136 17 3 31 5 31 5 1 -1 -2 -28 -8 -61z m609 -102 c-32 -163
-32 -163 -66 -163 -25 0 -32 4 -28 15 4 8 18 77 34 154 27 138 27 139 57 148
17 6 32 9 33 9 1 -1 -13 -74 -30 -163z m262 141 c25 -31 26 -72 6 -164 -8 -36
-14 -82 -15 -102 0 -37 -1 -38 -39 -38 -39 0 -40 1 -31 28 20 62 51 247 46
274 -7 35 6 36 33 2z m1109 -39 c-5 -33 -13 -73 -18 -90 -5 -16 -15 -63 -22
-102 -12 -73 -12 -73 -45 -73 -31 0 -33 2 -26 28 4 15 18 85 33 157 26 128 26
130 55 136 17 3 31 5 31 5 1 -1 -2 -28 -8 -61z m1899 -102 c-32 -163 -32 -163
-66 -163 -25 0 -32 4 -28 15 4 8 18 77 34 154 27 138 27 139 57 148 17 6 32 9
33 9 1 -1 -13 -74 -30 -163z m262 141 c25 -31 26 -72 6 -164 -8 -36 -14 -82
-15 -102 0 -37 -1 -38 -39 -38 -39 0 -40 1 -31 28 20 62 51 247 46 274 -7 35
6 36 33 2z m-1749 9 c0 -31 -84 -426 -97 -456 -18 -41 -85 -100 -69 -61 14 33
96 444 96 479 0 18 6 36 13 38 19 8 57 8 57 0z m-2805 -58 c-21 -68 -19 -161
4 -212 18 -38 18 -41 3 -36 -111 41 -125 170 -29 270 38 41 40 39 22 -22z
m649 23 c-28 -53 -31 -175 -6 -231 23 -53 23 -53 -19 -32 -63 33 -88 128 -53
198 18 35 73 97 86 97 5 0 1 -15 -8 -32z m3270 0 c-28 -53 -31 -175 -6 -231
23 -53 23 -53 -19 -32 -63 33 -88 128 -53 198 18 35 73 97 86 97 5 0 1 -15 -8
-32z m-2293 -144 c30 -64 56 -121 57 -125 2 -5 -12 -9 -31 -9 -33 0 -35 2 -80
99 -53 113 -53 108 -30 133 25 28 26 26 84 -98z m1810 0 c30 -64 56 -121 57
-125 2 -5 -12 -9 -31 -9 -33 0 -35 2 -80 99 -53 113 -53 108 -30 133 25 28 26
26 84 -98z m-1437 -10 c-10 -24 -14 -54 -11 -81 5 -48 -10 -56 -51 -27 -39 27
-19 95 40 132 40 26 42 24 22 -24z m900 0 c-10 -24 -14 -54 -11 -81 5 -48 -10
-56 -51 -27 -39 27 -19 95 40 132 40 26 42 24 22 -24z" />
    <path d="M4718 4155 c-20 -7 -110 -30 -200 -50 -406 -92 -526 -187 -572 -455
-22 -128 -21 -142 6 -138 25 3 37 20 123 173 102 182 154 235 275 283 54 21
261 72 269 66 6 -5 -122 -153 -135 -156 -18 -4 -134 -117 -134 -130 0 -11 55
-7 129 8 33 7 31 4 -50 -78 -89 -90 -146 -129 -244 -168 -126 -49 -215 -99
-215 -120 0 -24 -7 -24 188 -6 173 16 210 29 291 102 27 24 52 44 55 44 22 0
159 196 215 308 45 91 68 158 81 234 15 98 0 113 -82 83z" />
    <path d="M1356 4113 c38 -261 243 -598 415 -681 48 -23 175 -47 307 -57 77 -7
82 -6 82 13 0 27 -12 35 -115 77 -187 76 -258 123 -335 221 -29 36 -50 67 -48
70 2 2 30 -1 63 -6 82 -13 103 7 45 45 -37 24 -225 224 -218 231 9 9 222 -49
272 -73 69 -35 138 -103 176 -176 71 -133 161 -277 174 -277 33 0 33 49 0 176
-66 258 -154 325 -553 425 -291 73 -274 72 -265 12z" />
    <path d="M2694 3989 c-37 -41 -251 -217 -272 -223 -24 -8 -29 -38 -9 -54 25
-21 66 -24 99 -8 33 16 33 16 -7 -19 -22 -19 -45 -35 -52 -35 -18 0 -56 -56
-107 -157 -52 -105 -54 -113 -25 -113 18 0 15 -6 -20 -48 -23 -27 -41 -53 -41
-60 0 -6 -9 -16 -20 -22 -11 -6 -20 -20 -20 -31 0 -20 4 -20 133 -14 132 6
132 6 184 -24 62 -37 96 -88 117 -181 22 -93 22 -94 -24 -70 -28 14 -59 20
-109 20 -111 0 -150 33 -173 143 -16 74 -48 83 -48 15 0 -173 58 -276 197
-354 119 -66 203 -173 203 -258 0 -23 4 -27 19 -23 17 4 17 2 5 -41 -19 -60
-18 -72 5 -72 19 0 19 -1 0 -67 -39 -132 -42 -153 -31 -221 24 -145 136 -213
285 -171 65 18 35 93 -48 119 -142 44 -185 213 -79 312 85 79 275 100 386 43
67 -34 68 -36 8 -25 -90 18 -311 12 -357 -10 -62 -28 -55 -44 25 -58 214 -38
211 -38 310 -7 51 15 92 33 92 38 0 6 9 2 20 -8 27 -24 27 -65 1 -58 -21 5
-101 -96 -101 -129 0 -44 69 -6 95 52 16 35 16 35 9 0 -16 -84 -78 -149 -146
-150 -21 0 -68 -56 -68 -80 0 -26 30 -40 96 -47 111 -12 202 42 226 133 7 24
16 44 20 44 15 0 8 105 -12 200 -11 51 -20 95 -20 97 0 2 10 3 21 3 21 0 22 4
17 68 -3 37 -3 57 -1 45 7 -38 31 -26 43 20 27 106 83 217 110 217 5 0 15 6
22 13 7 6 32 25 56 40 118 77 156 146 157 287 0 101 -1 105 -22 108 -20 3 -23
-1 -23 -35 0 -61 -20 -115 -55 -150 -32 -32 -35 -33 -118 -33 -86 0 -113 -10
-155 -60 -15 -17 -16 -20 18 105 35 129 44 142 123 182 70 35 71 35 181 31
107 -3 111 -2 114 19 2 14 -3 23 -17 28 -13 4 -21 15 -21 29 0 13 -9 35 -20
49 -11 14 -20 36 -20 49 0 67 -64 202 -127 266 -58 59 -60 62 -35 62 29 1 62
21 62 37 0 6 -33 37 -72 70 -40 33 -109 90 -152 127 -95 79 -100 79 -177 18
-159 -129 -280 -150 -426 -73 -45 23 -102 60 -127 82 -50 44 -74 48 -102 18z
m-148 -521 c26 -18 50 -40 52 -48 3 -10 -3 -8 -19 6 -67 59 -103 57 -209 -12
-14 -9 -7 -1 15 19 36 33 90 66 106 67 4 0 28 -15 55 -32z m1164 6 c14 -7 36
-23 50 -34 20 -17 16 -16 -21 4 -61 35 -104 33 -164 -5 -29 -18 -43 -24 -35
-13 8 9 35 30 60 46 45 29 60 29 110 2z m-934 -419 c54 -183 56 -321 5 -468
-19 -54 -36 -96 -38 -93 -3 3 1 22 8 43 20 57 13 218 -16 386 -14 80 -25 177
-25 215 0 38 -7 89 -15 112 -23 64 -17 62 15 -5 15 -33 45 -118 66 -190z m664
200 c-6 -15 -15 -59 -20 -99 -6 -39 -29 -134 -51 -210 -37 -126 -41 -147 -37
-220 4 -57 2 -73 -5 -56 -21 54 -20 211 2 308 18 84 108 319 117 309 3 -2 0
-17 -6 -32z m-537 -133 c82 -181 75 -367 -19 -539 -25 -46 -46 -83 -48 -83 -2
0 9 37 24 83 57 168 62 290 20 491 -23 114 -22 106 -11 106 4 0 20 -26 34 -58z" />
    <path d="M2424 3145 c-9 -23 3 -45 26 -45 16 0 20 7 20 30 0 33 -35 44 -46 15z" />
    <path d="M3672 3148 c-23 -23 -15 -50 16 -46 21 2 28 9 30 31 4 30 -23 38 -46
15z" />
    <path d="M2387 2656 c-11 -28 15 -173 44 -246 56 -140 190 -360 220 -360 24 0
25 -4 -12 136 -26 101 -45 145 -125 294 -52 96 -94 178 -94 182 0 14 -28 9
-33 -6z" />
    <path d="M3746 2548 c-73 -115 -135 -243 -161 -332 -9 -33 -30 -86 -46 -118
-62 -122 -26 -117 90 13 132 148 211 329 211 485 0 79 -18 70 -94 -48z" />
    <path d="M2837 2263 c-20 -20 6 -118 36 -137 73 -47 101 -19 48 47 -15 20 -34
50 -41 67 -12 29 -29 38 -43 23z" />
    <path d="M2830 1863 c0 -23 75 -92 124 -114 70 -32 198 -26 274 12 65 32 102
69 102 100 0 25 -53 25 -167 3 -76 -15 -88 -15 -163 0 -108 22 -170 21 -170
-1z" />
  </g>
  <g transform="translate(0.000000,700.000000) scale(0.100000,-0.100000)" fill="#325e58" stroke="none">
    <path d="M1435 6929 c-142 -135 -270 -337 -350 -553 -46 -124 -68 -229 -100
-480 -14 -110 -27 -201 -29 -203 -10 -11 -80 131 -98 201 -19 70 -22 107 -22
271 0 209 10 258 84 405 35 69 37 90 10 90 -50 0 -171 -196 -212 -346 -32
-115 -32 -382 -1 -500 64 -242 216 -567 424 -906 43 -71 74 -128 70 -128 -23
0 -197 148 -288 244 -209 220 -335 462 -365 698 -12 96 -9 131 24 276 25 109
-27 90 -88 -32 -168 -343 20 -882 438 -1255 165 -146 310 -232 623 -366 454
-195 669 -316 752 -424 36 -48 41 -86 12 -104 -13 -8 -33 5 -100 63 -169 146
-261 195 -560 294 -218 73 -305 96 -366 96 -53 0 -54 -10 -19 -180 65 -309
218 -572 407 -697 53 -35 132 -60 263 -82 122 -21 145 -32 221 -102 17 -15 46
-35 66 -43 44 -18 44 -18 58 -426 6 -193 12 -265 24 -298 17 -44 11 -208 -23
-652 -28 -370 -88 -618 -191 -791 -50 -84 -50 -84 -2 -128 26 -25 80 -74 118
-111 242 -226 722 -587 935 -701 25 -13 47 -26 50 -29 64 -64 40 -16 -34 67
-298 339 -474 738 -611 1384 -13 64 -36 161 -50 215 -48 181 -78 350 -60 332
3 -2 16 -51 29 -109 154 -655 264 -993 433 -1337 85 -171 116 -222 87 -140
-25 72 -39 228 -27 305 29 186 129 346 373 598 155 159 202 216 273 325 124
192 219 429 257 640 7 36 14 72 17 80 3 8 36 -138 74 -325 38 -187 73 -358 78
-380 50 -218 70 -396 46 -403 -10 -3 -17 24 -30 112 -9 63 -19 49 -34 -42 -33
-207 -168 -506 -310 -687 -54 -68 -252 -263 -328 -323 -40 -31 -70 -58 -68
-60 5 -6 263 161 374 242 185 134 330 264 569 509 83 85 83 86 69 114 -57 111
-260 807 -321 1101 -98 472 -110 564 -100 760 7 142 7 142 42 164 19 11 55 39
80 61 57 49 88 63 178 77 173 28 289 85 389 192 157 166 253 372 301 645 25
146 12 155 -160 103 -34 -10 -106 -30 -161 -45 -174 -48 -337 -106 -428 -152
-86 -45 -273 -178 -289 -208 -13 -22 -33 -18 -51 9 -15 23 -15 26 12 63 106
145 343 287 761 453 290 115 518 238 638 342 430 376 626 960 431 1287 -77
127 -109 105 -68 -46 75 -272 -74 -645 -377 -948 -95 -95 -263 -220 -285 -213
-5 2 20 50 57 108 119 187 197 332 310 577 193 418 180 841 -33 1111 -94 119
-120 94 -54 -51 68 -146 74 -183 68 -422 -6 -231 -14 -275 -68 -360 -32 -50
-32 -50 -65 149 -62 379 -141 602 -292 831 -54 82 -236 270 -251 260 -20 -12
-11 -35 37 -103 152 -210 257 -462 296 -712 9 -58 19 -120 22 -137 8 -54 -18
-40 -86 45 -58 72 -332 375 -391 432 -15 14 -64 75 -109 135 -93 123 -102 132
-121 109 -11 -14 -7 -28 26 -93 45 -86 183 -299 216 -332 110 -110 277 -383
348 -571 153 -402 -10 -868 -393 -1123 -118 -79 -568 -302 -574 -285 -2 5 8
42 22 82 85 247 98 515 34 702 -43 127 -129 259 -156 242 -18 -11 -15 -29 25
-144 63 -183 59 -384 -13 -607 -68 -209 -275 -563 -327 -557 -17 2 -45 -10
-85 -37 -109 -75 -165 -95 -267 -95 -111 -1 -161 15 -279 89 -85 54 -119 65
-131 45 -12 -20 -26 -9 -84 70 -68 91 -189 329 -225 441 -83 259 -81 482 5
693 32 79 36 106 15 106 -43 0 -154 -190 -191 -325 -45 -166 -24 -411 56 -660
15 -49 27 -90 25 -92 -12 -13 -434 197 -547 273 -316 210 -514 574 -496 914
13 242 90 462 236 670 269 383 361 529 361 573 0 50 -30 27 -123 -93 -48 -63
-150 -184 -225 -269 -75 -84 -177 -199 -225 -255 -103 -118 -107 -120 -107
-68 0 200 159 617 314 826 103 137 83 160 -39 45z m3356 -2786 c4 -77 -24
-180 -82 -295 -56 -112 -193 -308 -215 -308 -3 0 -28 -20 -55 -44 -81 -73
-118 -86 -291 -102 -184 -17 -168 -16 -168 -4 0 11 123 74 215 110 101 40 156
79 253 178 51 52 91 97 89 99 -2 2 -36 -3 -76 -12 -40 -8 -78 -15 -86 -15 -14
0 102 115 123 121 23 7 154 174 139 177 -22 5 -236 -46 -297 -70 -135 -53
-181 -106 -327 -374 -65 -120 -82 -112 -58 27 46 277 163 371 573 464 90 20
180 43 200 50 50 18 62 18 63 -2z m-3180 -52 c339 -85 434 -140 507 -291 41
-86 79 -242 65 -272 -9 -20 -16 -12 -75 87 -35 61 -79 138 -98 172 -65 124
-154 183 -340 227 -63 16 -123 30 -133 33 -17 4 -17 2 -6 -19 17 -33 192 -219
228 -243 16 -10 28 -22 26 -26 -4 -6 -75 3 -129 16 -27 7 -28 7 -16 -16 71
-132 182 -217 395 -304 88 -36 125 -59 113 -70 -8 -9 -212 13 -288 31 -149 34
-276 166 -404 421 -49 97 -109 313 -88 313 4 0 113 -27 243 -59z m1175 -130
c25 -22 82 -59 127 -82 151 -80 285 -58 446 73 33 26 64 48 69 48 4 0 44 -30
88 -66 43 -37 112 -94 151 -127 66 -54 71 -61 55 -73 -40 -30 -62 -18 -222
124 -62 55 -30 20 90 -99 185 -184 185 -184 218 -274 36 -100 41 -133 15 -95
-29 43 -86 90 -132 107 -43 16 -44 16 -89 -7 -96 -52 -218 -254 -275 -460 -34
-122 -31 -322 7 -415 87 -220 137 -402 135 -494 -1 -46 -1 -46 -9 4 -8 48 -25
105 -33 105 -2 0 2 -24 10 -52 40 -150 -28 -263 -167 -275 -48 -5 -121 15
-127 33 -5 16 46 74 65 74 82 1 136 72 154 200 11 81 11 81 -20 113 -66 68
-133 92 -257 91 -198 -1 -295 -73 -295 -219 0 -98 42 -156 135 -185 39 -12 84
-53 85 -77 0 -18 -78 -36 -132 -31 -136 13 -213 176 -156 328 10 25 22 64 28
86 5 23 32 76 60 117 125 193 160 285 160 433 0 123 -69 348 -100 329 -5 -3
-7 0 -4 8 2 7 -5 25 -16 38 -25 28 -26 36 15 -155 48 -221 44 -319 -20 -507
-30 -91 -96 -209 -116 -209 -12 0 -3 38 37 140 55 145 66 203 62 320 -13 312
-221 709 -356 675 -31 -8 -128 -79 -136 -101 -3 -7 -10 -14 -16 -14 -12 0 71
171 107 218 13 17 31 32 40 32 19 0 293 274 293 293 0 6 -39 -27 -86 -76 -133
-136 -204 -175 -248 -137 -22 17 -20 27 6 36 21 6 235 182 272 223 26 28 31
27 82 -18z m-251 -519 c106 -65 154 -161 166 -327 4 -60 16 -163 28 -229 25
-140 29 -283 11 -346 -17 -58 -30 -72 -30 -35 0 86 -83 192 -203 259 -112 63
-169 138 -186 247 -21 124 -6 183 17 72 23 -110 62 -143 173 -143 69 0 113
-14 152 -48 16 -14 17 -13 17 19 -1 118 -56 234 -133 280 -52 30 -52 30 -184
24 -178 -8 -177 24 2 55 82 14 137 4 183 -35 36 -30 52 -33 26 -4 -53 59 -155
77 -256 46 -59 -18 -59 -16 0 55 94 113 158 146 217 110z m1213 -22 c33 -22
76 -58 96 -80 39 -43 48 -77 19 -65 -108 41 -223 20 -282 -52 -46 -56 -38 -63
12 -10 66 70 148 82 280 40 80 -25 54 -38 -69 -34 -109 3 -111 3 -180 -32 -38
-19 -75 -45 -81 -56 -18 -28 -73 -228 -73 -260 1 -26 1 -26 23 -1 55 62 74 70
164 70 83 0 86 1 118 33 35 35 55 89 55 150 0 27 4 37 13 34 22 -7 15 -184
-10 -232 -27 -51 -80 -106 -135 -142 -24 -15 -49 -34 -56 -40 -7 -7 -18 -13
-23 -13 -19 0 -79 -108 -98 -179 -11 -41 -22 -76 -24 -78 -2 -2 -12 30 -21 70
-33 140 -43 101 -15 -62 24 -146 5 -132 -60 42 -74 196 -76 232 -22 413 22 76
45 171 51 211 19 136 70 228 159 285 60 38 87 36 159 -12z m-1288 -290 c0 -21
-15 -27 -25 -10 -7 12 2 30 16 30 5 0 9 -9 9 -20z m1250 5 c0 -16 -27 -32 -37
-21 -7 7 16 36 28 36 5 0 9 -7 9 -15z m-1189 -696 c60 -112 84 -168 103 -246
14 -55 29 -108 32 -117 13 -35 -15 -13 -48 37 -119 181 -192 343 -206 454 -10
89 -5 104 20 56 11 -21 56 -104 99 -184z m1294 52 c-23 -101 -47 -163 -92
-238 -38 -61 -191 -238 -200 -229 -2 2 9 31 25 63 17 32 38 86 47 119 27 90
89 217 163 334 67 105 67 105 70 66 2 -21 -4 -73 -13 -115z m-530 -161 c30
-13 30 -13 -60 -42 -98 -33 -102 -32 -300 6 -70 13 -70 13 -25 35 42 20 57 21
200 18 96 -3 166 -9 185 -17z m-361 -184 c24 -35 18 -39 -25 -18 -37 18 -67
86 -54 120 5 13 12 7 33 -30 15 -25 35 -58 46 -72z m402 40 c-18 -47 -76 -99
-76 -68 0 14 82 124 87 118 3 -3 -2 -26 -11 -50z m-333 -333 c83 -16 94 -16
176 0 97 19 151 22 151 8 0 -22 -46 -62 -102 -90 -107 -54 -228 -42 -319 30
-90 71 -68 83 94 52z" />
    <path d="M2930 6014 c-564 -37 -1029 -198 -1432 -496 -132 -97 -157 -122 -143
-142 17 -23 17 -23 98 44 41 33 79 60 85 60 7 0 12 4 12 9 0 17 205 142 345
211 625 306 1367 350 2070 123 287 -93 597 -256 788 -415 46 -38 49 -39 67
-23 19 17 18 19 -31 59 -349 284 -865 491 -1370 550 -131 16 -395 26 -489 20z" />
    <path d="M5398 4769 c-26 -14 -24 -19 36 -111 438 -672 548 -1592 283 -2373
-290 -853 -951 -1478 -1849 -1749 -76 -23 -85 -29 -81 -46 7 -27 22 -26 145
14 931 302 1591 960 1861 1856 174 575 152 1235 -59 1809 -90 244 -301 620
-336 600z" />
    <path d="M708 4682 c-473 -796 -549 -1697 -213 -2523 316 -775 963 -1383 1755
-1650 143 -48 145 -48 153 -27 10 28 16 25 -130 73 -944 310 -1677 1130 -1878
2100 -139 673 -9 1408 353 1998 47 76 49 83 24 96 -15 8 -25 -2 -64 -67z" />
    <path d="M6929 3444 c28 -20 51 -72 51 -116 0 -63 -318 -1624 -351 -1724 -48
-143 -107 -212 -190 -221 -61 -6 -104 23 -132 87 -26 59 -24 59 -99 14 -66
-41 -66 -47 6 -89 190 -111 517 -4 667 217 67 98 74 125 229 905 84 416 160
780 171 808 19 52 68 111 104 126 11 4 -90 8 -230 8 -233 1 -248 0 -226 -15z" />
    <path d="M8960 3424 c-56 -39 -130 -62 -244 -75 -105 -12 -105 -12 -86 -37 39
-48 30 -109 -144 -977 -91 -451 -172 -837 -180 -857 -19 -44 -72 -107 -100
-118 -12 -5 86 -9 229 -9 162 0 242 3 227 9 -60 25 -64 98 -17 330 35 174 35
174 103 274 37 55 72 101 78 103 5 2 86 -161 179 -362 168 -365 168 -365 342
-365 162 0 173 1 165 18 -10 18 -387 837 -428 929 -23 52 -23 52 54 113 150
118 250 138 406 82 70 -26 65 -29 82 50 19 89 19 88 -27 88 -108 0 -282 -64
-418 -154 -134 -89 -338 -305 -441 -465 -18 -30 -35 -50 -37 -45 -2 5 64 343
146 752 81 408 148 742 147 742 -1 -1 -17 -12 -36 -26z" />
    <path d="M11250 3424 c-56 -39 -130 -62 -244 -75 -105 -12 -105 -12 -86 -37
39 -48 30 -109 -144 -977 -91 -451 -172 -837 -180 -857 -19 -44 -72 -107 -100
-118 -12 -5 86 -9 229 -9 162 0 242 3 227 9 -60 25 -64 98 -17 330 35 174 35
174 103 274 37 55 72 101 78 103 5 2 86 -161 179 -362 168 -365 168 -365 342
-365 162 0 173 1 165 18 -10 18 -387 837 -428 929 -23 52 -23 52 54 113 150
118 250 138 406 82 70 -26 65 -29 82 50 19 89 19 88 -27 88 -108 0 -282 -64
-418 -154 -134 -89 -338 -305 -441 -465 -18 -30 -35 -50 -37 -45 -2 5 64 343
146 752 81 408 148 742 147 742 -1 -1 -17 -12 -36 -26z" />
    <path d="M10280 2964 c-51 -36 -153 -64 -252 -71 -95 -6 -96 -7 -70 -36 18
-21 24 -144 9 -199 -7 -28 -7 -28 -112 -28 -87 0 -105 -3 -105 -15 0 -12 18
-15 100 -15 75 0 100 -3 100 -13 0 -7 -38 -204 -85 -437 -48 -237 -85 -450
-85 -482 0 -243 256 -387 503 -283 37 15 37 15 1 70 -37 55 -37 55 -65 10 -33
-52 -83 -87 -119 -83 -79 9 -70 155 50 756 93 462 93 462 331 462 206 0 239 2
239 15 0 13 -33 15 -235 15 -129 0 -235 1 -235 3 0 2 16 82 35 177 19 95 34
174 32 176 -1 1 -18 -9 -37 -22z" />
    <path d="M14880 2964 c-51 -36 -153 -64 -252 -71 -95 -6 -96 -7 -70 -36 18
-21 24 -144 9 -199 -7 -28 -7 -28 -112 -28 -87 0 -105 -3 -105 -15 0 -12 18
-15 100 -15 75 0 100 -3 100 -13 0 -7 -38 -204 -85 -437 -48 -237 -85 -450
-85 -482 0 -243 256 -387 503 -283 37 15 37 15 1 70 -37 55 -37 55 -65 10 -33
-52 -83 -87 -119 -83 -79 9 -70 155 50 756 93 462 93 462 331 462 206 0 239 2
239 15 0 13 -33 15 -235 15 -129 0 -235 1 -235 3 0 2 16 82 35 177 19 95 34
174 32 176 -1 1 -18 -9 -37 -22z" />
    <path d="M7663 2612 c-106 -32 -173 -72 -255 -153 -43 -42 -78 -83 -78 -90 0
-8 34 -28 80 -46 56 -22 80 -27 80 -18 0 29 87 183 128 227 106 114 305 85
319 -46 6 -52 -46 -337 -62 -341 -5 -2 -60 -12 -122 -24 -420 -78 -672 -258
-714 -508 -42 -252 192 -327 631 -204 99 28 99 28 120 -2 35 -46 75 -57 212
-57 114 0 121 1 100 16 -70 49 -68 91 24 544 81 406 83 427 42 522 -27 64
-111 140 -186 169 -79 31 -232 36 -319 11z m156 -794 c-33 -161 -59 -306 -59
-324 0 -31 -1 -32 -82 -55 -274 -76 -364 5 -298 267 55 216 173 342 360 385
153 35 145 60 79 -273z" />
    <path d="M12513 2612 c-106 -32 -173 -72 -255 -153 -43 -42 -78 -83 -78 -90 0
-8 34 -28 80 -46 56 -22 80 -27 80 -18 0 29 87 183 128 227 106 114 305 85
319 -46 6 -52 -46 -337 -62 -341 -5 -2 -60 -12 -122 -24 -420 -78 -672 -258
-714 -508 -42 -252 192 -327 631 -204 99 28 99 28 120 -2 35 -46 75 -57 212
-57 114 0 121 1 100 16 -70 49 -68 91 24 544 81 406 83 427 42 522 -27 64
-111 140 -186 169 -79 31 -232 36 -319 11z m156 -794 c-33 -161 -59 -306 -59
-324 0 -31 -1 -32 -82 -55 -274 -76 -364 5 -298 267 55 216 173 342 360 385
153 35 145 60 79 -273z" />
    <path d="M14018 2611 c-137 -54 -265 -202 -383 -442 -30 -62 -55 -108 -55
-102 0 9 94 485 105 530 5 22 4 22 -42 -7 -65 -41 -130 -59 -238 -66 -117 -7
-123 -9 -94 -33 42 -34 32 -131 -60 -583 -93 -457 -107 -497 -196 -546 -15 -9
42 -11 232 -12 251 0 251 0 222 29 -16 16 -29 37 -29 45 0 9 -4 16 -10 16 -12
0 -14 107 -2 112 5 2 21 68 37 148 53 272 194 587 324 725 80 86 191 93 287
20 41 -31 36 -35 102 72 50 82 50 82 11 97 -53 21 -152 20 -211 -3z" />
    <path d="M15682 2615 c-87 -19 -198 -76 -265 -136 -52 -46 -105 -115 -95 -124
7 -7 151 -65 154 -63 1 2 14 32 29 67 81 193 159 252 309 230 119 -16 136 -71
91 -302 -15 -78 -28 -143 -29 -144 -1 -1 -46 -9 -101 -18 -432 -73 -699 -257
-745 -513 -44 -244 171 -323 587 -218 142 37 142 37 177 -1 34 -38 34 -38 176
-41 142 -4 142 -4 110 25 -39 35 -49 99 -31 194 12 61 14 63 128 173 64 61
175 183 248 271 291 352 514 524 739 570 183 37 276 -39 276 -225 0 -68 -135
-769 -166 -863 -18 -54 -54 -101 -99 -128 -30 -19 -28 -19 217 -19 246 0 246
0 218 28 -51 52 -49 79 29 474 75 375 79 412 57 496 -83 312 -502 373 -849
124 -46 -33 -48 -33 -42 -11 3 13 11 54 18 90 14 66 14 66 -41 33 -56 -34
-163 -64 -230 -64 -22 0 -53 -3 -70 -6 -29 -6 -30 -6 -11 -25 45 -45 -1 -375
-63 -454 -245 -310 -528 -537 -747 -600 -265 -77 -353 3 -291 262 39 164 135
298 253 355 45 22 233 65 242 56 2 -2 -23 -136 -56 -298 -33 -162 -58 -301
-57 -308 3 -15 216 123 286 185 42 38 42 38 98 313 62 306 63 345 19 435 -73
151 -268 224 -473 180z" />
    <path d="M16679 2258 c-99 -96 -244 -265 -259 -302 -5 -12 -28 -115 -51 -231
-52 -268 -78 -328 -153 -361 -27 -12 0 -13 224 -13 217 0 251 2 231 13 -70 39
-67 92 29 571 44 220 79 403 77 408 -1 4 -45 -34 -98 -85z" />
    <path d="M3787 1800 c-11 -54 -82 -241 -122 -320 -44 -87 -31 -85 18 3 62 110
127 303 115 339 -3 7 -8 -3 -11 -22z" />
    <path d="M9779 960 c-72 -21 -111 -72 -129 -167 -11 -53 -16 -63 -34 -64 -17
-1 -17 -2 -3 -6 22 -6 22 -4 -13 -178 -18 -87 -37 -156 -47 -167 -15 -17 -13
-18 48 -18 65 0 65 0 61 38 -1 20 10 100 25 177 29 140 29 140 83 146 55 6 55
6 3 7 -29 1 -53 4 -53 6 0 20 33 153 44 180 21 51 86 58 86 10 0 -12 4 -12 20
-2 29 18 25 26 -17 37 -43 12 -39 12 -74 1z" />
    <path d="M11396 952 c-3 -6 -24 -13 -46 -17 -37 -6 -40 -9 -40 -38 0 -52 -90
-490 -106 -515 -14 -22 -14 -22 52 -22 57 0 65 2 54 15 -15 19 4 116 33 164
20 34 20 34 70 -73 50 -106 50 -106 98 -106 57 0 59 -15 -25 163 -56 119 -56
119 -33 138 29 25 60 33 102 26 27 -4 34 -2 38 14 4 15 0 19 -19 19 -59 0
-143 -55 -207 -135 -31 -39 -39 -44 -34 -25 3 14 22 108 42 208 33 167 38 212
21 184z" />
    <path d="M11758 941 c-44 -13 -48 -17 -48 -45 0 -51 -91 -489 -106 -514 -14
-22 -14 -22 52 -22 57 0 65 2 55 14 -10 12 0 74 44 296 31 155 55 283 53 284
-2 1 -24 -5 -50 -13z" />
    <path d="M13206 952 c-3 -6 -24 -13 -46 -17 -37 -6 -40 -9 -40 -38 0 -52 -90
-490 -106 -515 -14 -22 -14 -22 52 -22 57 0 65 2 54 15 -15 19 4 116 33 164
20 34 20 34 70 -73 50 -106 50 -106 98 -106 57 0 59 -15 -25 163 -56 119 -56
119 -33 138 29 25 60 33 102 26 27 -4 34 -2 38 14 4 15 0 19 -19 19 -59 0
-143 -55 -207 -135 -31 -39 -39 -44 -34 -25 3 14 22 108 42 208 33 167 38 212
21 184z" />
    <path d="M12632 852 c-32 -27 -32 -27 -10 -54 23 -28 23 -28 55 0 32 27 32 27
10 54 -22 27 -22 27 -55 0z" />
    <path d="M9935 814 c-8 -9 -13 -20 -10 -25 6 -9 45 -13 45 -5 0 2 3 11 6 19 8
21 -23 29 -41 11z" />
    <path d="M10026 815 c-19 -19 -13 -35 14 -35 23 0 33 25 15 40 -10 8 -17 7
-29 -5z" />
    <path d="M13585 815 c-16 -8 -39 -14 -50 -15 -18 0 -20 -5 -17 -35 4 -35 4
-35 -39 -37 -44 -1 -44 -1 -6 -5 20 -2 37 -7 37 -11 0 -24 -35 -178 -41 -182
-4 -3 -11 -28 -14 -56 -11 -77 47 -125 130 -110 31 6 33 9 23 26 -12 18 -12
18 -26 -1 -7 -10 -20 -19 -28 -19 -21 0 -18 54 13 212 27 138 27 138 98 140
70 2 70 2 3 5 -73 4 -73 4 -59 66 5 20 8 37 7 36 0 0 -14 -7 -31 -14z" />
    <path d="M9911 716 c-157 -57 -208 -269 -81 -337 131 -70 309 57 298 213 -8
109 -105 165 -217 124z m93 -26 c87 -104 0 -366 -103 -310 -71 37 -64 252 10
314 40 34 62 33 93 -4z" />
    <path d="M10270 715 c-14 -8 -38 -17 -53 -20 -15 -3 -25 -10 -22 -15 9 -14
-44 -271 -61 -297 -14 -23 -14 -23 52 -23 56 0 65 2 55 14 -30 36 51 267 105
303 21 13 32 15 55 6 35 -14 74 23 44 40 -40 22 -106 -22 -154 -103 -24 -41
-25 -37 -7 48 7 34 13 62 12 61 0 0 -12 -7 -26 -14z" />
    <path d="M10570 721 c-104 -32 -170 -114 -170 -213 0 -146 143 -197 284 -100
38 26 38 26 10 34 -24 7 -32 4 -44 -14 -71 -106 -160 -54 -160 94 0 58 0 58
141 58 142 0 142 0 136 37 -13 80 -109 131 -197 104z m63 -21 c22 -17 47 -72
47 -102 0 -5 -40 -8 -90 -8 -65 0 -90 3 -90 13 0 24 46 92 70 104 33 17 33 16
63 -7z" />
    <path d="M10906 715 c-11 -8 -35 -18 -53 -21 -23 -4 -33 -11 -29 -20 8 -20
-43 -265 -60 -291 -14 -23 -14 -23 51 -23 59 0 64 2 55 18 -8 13 -4 51 17 152
28 134 28 134 68 157 24 14 57 23 83 23 72 0 73 -20 20 -273 -5 -26 -16 -54
-25 -62 -13 -13 -7 -15 50 -15 64 0 64 0 59 29 -2 16 3 63 12 106 25 119 22
161 -13 196 -40 40 -115 43 -185 7 -39 -20 -39 -20 -34 6 3 14 5 26 4 26 0 0
-10 -7 -20 -15z" />
    <path d="M11915 711 c-22 -10 -48 -28 -59 -39 -19 -21 -18 -22 5 -31 21 -8 26
-4 42 25 45 87 129 65 108 -29 -11 -48 -7 -44 -77 -63 -114 -29 -174 -82 -174
-153 0 -48 36 -66 113 -56 69 8 83 8 143 -1 41 -6 41 -5 37 20 -3 15 5 78 17
141 26 133 21 163 -35 189 -43 21 -71 20 -120 -3z m80 -153 c-19 -83 -32 -158
-26 -159 20 -2 -40 -18 -71 -18 -32 -1 -39 3 -44 25 -16 62 36 150 96 164 51
12 51 12 45 -12z" />
    <path d="M12250 715 c-14 -8 -38 -17 -53 -20 -15 -3 -25 -10 -22 -15 9 -14
-44 -271 -61 -297 -14 -23 -14 -23 52 -23 56 0 65 2 55 14 -30 36 51 267 105
303 21 13 32 15 55 6 35 -14 74 23 44 40 -40 22 -106 -22 -154 -103 -24 -41
-25 -37 -7 48 7 34 13 62 12 61 0 0 -12 -7 -26 -14z" />
    <path d="M12815 711 c-22 -10 -48 -28 -59 -39 -19 -21 -18 -22 5 -31 21 -8 26
-4 42 25 45 87 129 65 108 -29 -11 -48 -7 -44 -77 -63 -114 -29 -174 -82 -174
-153 0 -48 36 -66 113 -56 69 8 83 8 143 -1 41 -6 41 -5 37 20 -3 15 5 78 17
141 26 133 21 163 -35 189 -43 21 -71 20 -120 -3z m80 -153 c-19 -83 -32 -158
-26 -159 20 -2 -40 -18 -71 -18 -32 -1 -39 3 -44 25 -16 62 36 150 96 164 51
12 51 12 45 -12z" />
    <path d="M13840 721 c-104 -32 -170 -114 -170 -213 0 -146 143 -197 284 -100
38 26 38 26 10 34 -24 7 -32 4 -44 -14 -71 -106 -160 -54 -160 94 0 58 0 58
141 58 142 0 142 0 136 37 -13 80 -109 131 -197 104z m63 -21 c22 -17 47 -72
47 -102 0 -5 -40 -8 -90 -8 -65 0 -90 3 -90 13 0 24 46 92 70 104 33 17 33 16
63 -7z" />
    <path d="M14176 715 c-11 -8 -35 -18 -53 -21 -23 -4 -33 -11 -29 -20 8 -20
-43 -265 -60 -291 -14 -23 -14 -23 51 -23 59 0 64 2 55 18 -8 13 -4 51 17 152
28 134 28 134 68 157 24 14 57 23 83 23 72 0 73 -20 20 -273 -5 -26 -16 -54
-25 -62 -13 -13 -7 -15 50 -15 64 0 64 0 59 29 -2 16 3 63 12 106 25 119 22
161 -13 196 -40 40 -115 43 -185 7 -39 -20 -39 -20 -34 6 3 14 5 26 4 26 0 0
-10 -7 -20 -15z" />
    <path d="M12655 709 c-11 -4 -32 -10 -47 -13 -24 -5 -28 -11 -28 -39 0 -46
-76 -422 -96 -475 -19 -52 -57 -67 -83 -34 -12 16 -20 19 -31 12 -13 -9 -12
-13 5 -26 49 -38 167 11 198 82 14 34 111 494 104 500 -1 1 -11 -2 -22 -7z" />
  </g>
</svg>